<mxfile host="app.diagrams.net" modified="2021-04-09T15:11:40.946Z" agent="5.0 (Macintosh)" etag="Vx91sfxdXF0upzo5us--" version="14.5.9" type="github">
  <diagram id="R2lEEEUBdFMjLlhIrx00" name="Page-1">
    <mxGraphModel dx="706" dy="808" grid="1" gridSize="10" guides="1" tooltips="1" connect="1" arrows="1" fold="1" page="1" pageScale="1" pageWidth="850" pageHeight="1100" math="0" shadow="0" extFonts="Permanent Marker^https://fonts.googleapis.com/css?family=Permanent+Marker">
      <root>
        <mxCell id="0" />
        <mxCell id="1" parent="0" />
        <mxCell id="pKAdBVLY3ZLgAZYDwYKF-1" value="Fornecedor" style="whiteSpace=wrap;html=1;align=center;" parent="1" vertex="1">
          <mxGeometry x="370" y="180" width="100" height="40" as="geometry" />
        </mxCell>
        <mxCell id="pKAdBVLY3ZLgAZYDwYKF-2" value="Nome" style="ellipse;whiteSpace=wrap;html=1;align=center;" parent="1" vertex="1">
          <mxGeometry x="250" y="270" width="100" height="40" as="geometry" />
        </mxCell>
        <mxCell id="pKAdBVLY3ZLgAZYDwYKF-3" value="&lt;u&gt;NIF&lt;/u&gt;" style="ellipse;whiteSpace=wrap;html=1;align=center;" parent="1" vertex="1">
          <mxGeometry x="370" y="270" width="100" height="40" as="geometry" />
        </mxCell>
        <mxCell id="pKAdBVLY3ZLgAZYDwYKF-4" value="Endereço" style="ellipse;whiteSpace=wrap;html=1;align=center;" parent="1" vertex="1">
          <mxGeometry x="490" y="270" width="100" height="40" as="geometry" />
        </mxCell>
        <mxCell id="pKAdBVLY3ZLgAZYDwYKF-5" value="Nº de Fax" style="ellipse;whiteSpace=wrap;html=1;align=center;" parent="1" vertex="1">
          <mxGeometry x="270" y="110" width="100" height="40" as="geometry" />
        </mxCell>
        <mxCell id="pKAdBVLY3ZLgAZYDwYKF-6" value="Tipo de Pagamento" style="ellipse;whiteSpace=wrap;html=1;align=center;" parent="1" vertex="1">
          <mxGeometry x="380" y="80" width="100" height="40" as="geometry" />
        </mxCell>
        <mxCell id="pKAdBVLY3ZLgAZYDwYKF-7" value="Tipo Fornecedor" style="ellipse;whiteSpace=wrap;html=1;align=center;" parent="1" vertex="1">
          <mxGeometry x="520" y="400" width="110" height="50" as="geometry" />
        </mxCell>
        <mxCell id="pKAdBVLY3ZLgAZYDwYKF-8" value="" style="endArrow=none;html=1;rounded=0;" parent="1" source="pKAdBVLY3ZLgAZYDwYKF-2" target="pKAdBVLY3ZLgAZYDwYKF-1" edge="1">
          <mxGeometry relative="1" as="geometry">
            <mxPoint x="470" y="280" as="sourcePoint" />
            <mxPoint x="630" y="280" as="targetPoint" />
          </mxGeometry>
        </mxCell>
        <mxCell id="pKAdBVLY3ZLgAZYDwYKF-9" value="" style="endArrow=none;html=1;rounded=0;" parent="1" source="pKAdBVLY3ZLgAZYDwYKF-3" target="pKAdBVLY3ZLgAZYDwYKF-1" edge="1">
          <mxGeometry relative="1" as="geometry">
            <mxPoint x="470" y="280" as="sourcePoint" />
            <mxPoint x="630" y="280" as="targetPoint" />
          </mxGeometry>
        </mxCell>
        <mxCell id="pKAdBVLY3ZLgAZYDwYKF-10" value="" style="endArrow=none;html=1;rounded=0;" parent="1" source="pKAdBVLY3ZLgAZYDwYKF-4" target="pKAdBVLY3ZLgAZYDwYKF-1" edge="1">
          <mxGeometry relative="1" as="geometry">
            <mxPoint x="550" y="280" as="sourcePoint" />
            <mxPoint x="630" y="280" as="targetPoint" />
          </mxGeometry>
        </mxCell>
        <mxCell id="pKAdBVLY3ZLgAZYDwYKF-11" value="" style="endArrow=none;html=1;rounded=0;" parent="1" source="pKAdBVLY3ZLgAZYDwYKF-1" target="pKAdBVLY3ZLgAZYDwYKF-7" edge="1">
          <mxGeometry relative="1" as="geometry">
            <mxPoint x="470" y="280" as="sourcePoint" />
            <mxPoint x="630" y="280" as="targetPoint" />
          </mxGeometry>
        </mxCell>
        <mxCell id="pKAdBVLY3ZLgAZYDwYKF-16" value="" style="endArrow=none;html=1;rounded=0;entryX=0.5;entryY=1;entryDx=0;entryDy=0;exitX=0.5;exitY=0;exitDx=0;exitDy=0;" parent="1" source="pKAdBVLY3ZLgAZYDwYKF-1" target="pKAdBVLY3ZLgAZYDwYKF-6" edge="1">
          <mxGeometry relative="1" as="geometry">
            <mxPoint x="390" y="170" as="sourcePoint" />
            <mxPoint x="550" y="170" as="targetPoint" />
          </mxGeometry>
        </mxCell>
        <mxCell id="pKAdBVLY3ZLgAZYDwYKF-17" value="" style="endArrow=none;html=1;rounded=0;exitX=0.79;exitY=0.925;exitDx=0;exitDy=0;exitPerimeter=0;entryX=0.13;entryY=0;entryDx=0;entryDy=0;entryPerimeter=0;" parent="1" source="pKAdBVLY3ZLgAZYDwYKF-5" target="pKAdBVLY3ZLgAZYDwYKF-1" edge="1">
          <mxGeometry relative="1" as="geometry">
            <mxPoint x="470" y="280" as="sourcePoint" />
            <mxPoint x="630" y="280" as="targetPoint" />
          </mxGeometry>
        </mxCell>
        <mxCell id="pKAdBVLY3ZLgAZYDwYKF-18" value="&lt;u&gt;código&lt;/u&gt;" style="ellipse;whiteSpace=wrap;html=1;align=center;" parent="1" vertex="1">
          <mxGeometry x="600" y="340" width="100" height="40" as="geometry" />
        </mxCell>
        <mxCell id="pKAdBVLY3ZLgAZYDwYKF-19" value="designação" style="ellipse;whiteSpace=wrap;html=1;align=center;" parent="1" vertex="1">
          <mxGeometry x="720" y="347" width="100" height="40" as="geometry" />
        </mxCell>
        <mxCell id="pKAdBVLY3ZLgAZYDwYKF-20" value="" style="endArrow=none;html=1;rounded=0;exitX=0.5;exitY=0;exitDx=0;exitDy=0;" parent="1" source="pKAdBVLY3ZLgAZYDwYKF-7" target="pKAdBVLY3ZLgAZYDwYKF-18" edge="1">
          <mxGeometry relative="1" as="geometry">
            <mxPoint x="360" y="280" as="sourcePoint" />
            <mxPoint x="520" y="280" as="targetPoint" />
          </mxGeometry>
        </mxCell>
        <mxCell id="pKAdBVLY3ZLgAZYDwYKF-21" value="" style="endArrow=none;html=1;rounded=0;" parent="1" source="pKAdBVLY3ZLgAZYDwYKF-7" target="pKAdBVLY3ZLgAZYDwYKF-19" edge="1">
          <mxGeometry relative="1" as="geometry">
            <mxPoint x="360" y="280" as="sourcePoint" />
            <mxPoint x="520" y="280" as="targetPoint" />
          </mxGeometry>
        </mxCell>
        <mxCell id="pKAdBVLY3ZLgAZYDwYKF-22" value="" style="endArrow=none;html=1;rounded=0;exitX=1;exitY=0.5;exitDx=0;exitDy=0;" parent="1" source="pKAdBVLY3ZLgAZYDwYKF-1" target="pKAdBVLY3ZLgAZYDwYKF-23" edge="1">
          <mxGeometry relative="1" as="geometry">
            <mxPoint x="360" y="280" as="sourcePoint" />
            <mxPoint x="650" y="200" as="targetPoint" />
          </mxGeometry>
        </mxCell>
        <mxCell id="pKAdBVLY3ZLgAZYDwYKF-23" value="Constituida" style="shape=rhombus;perimeter=rhombusPerimeter;whiteSpace=wrap;html=1;align=center;" parent="1" vertex="1">
          <mxGeometry x="590" y="170" width="120" height="60" as="geometry" />
        </mxCell>
        <mxCell id="pKAdBVLY3ZLgAZYDwYKF-26" value="1" style="text;strokeColor=none;fillColor=none;spacingLeft=4;spacingRight=4;overflow=hidden;rotatable=0;points=[[0,0.5],[1,0.5]];portConstraint=eastwest;fontSize=12;" parent="1" vertex="1">
          <mxGeometry x="480" y="170" width="40" height="30" as="geometry" />
        </mxCell>
        <mxCell id="pKAdBVLY3ZLgAZYDwYKF-30" value="Encomenda" style="whiteSpace=wrap;html=1;align=center;" parent="1" vertex="1">
          <mxGeometry x="810" y="180" width="100" height="40" as="geometry" />
        </mxCell>
        <mxCell id="pKAdBVLY3ZLgAZYDwYKF-31" value="" style="endArrow=none;html=1;rounded=0;" parent="1" source="pKAdBVLY3ZLgAZYDwYKF-30" target="pKAdBVLY3ZLgAZYDwYKF-32" edge="1">
          <mxGeometry relative="1" as="geometry">
            <mxPoint x="730" y="280" as="sourcePoint" />
            <mxPoint x="780" y="110" as="targetPoint" />
          </mxGeometry>
        </mxCell>
        <mxCell id="pKAdBVLY3ZLgAZYDwYKF-32" value="&lt;u&gt;Nº Identificador&lt;/u&gt;" style="ellipse;whiteSpace=wrap;html=1;align=center;" parent="1" vertex="1">
          <mxGeometry x="740" y="100" width="100" height="40" as="geometry" />
        </mxCell>
        <mxCell id="pKAdBVLY3ZLgAZYDwYKF-33" value="Data" style="ellipse;whiteSpace=wrap;html=1;align=center;" parent="1" vertex="1">
          <mxGeometry x="870" y="100" width="100" height="40" as="geometry" />
        </mxCell>
        <mxCell id="pKAdBVLY3ZLgAZYDwYKF-35" value="" style="endArrow=none;html=1;rounded=0;" parent="1" source="pKAdBVLY3ZLgAZYDwYKF-30" target="pKAdBVLY3ZLgAZYDwYKF-33" edge="1">
          <mxGeometry relative="1" as="geometry">
            <mxPoint x="730" y="280" as="sourcePoint" />
            <mxPoint x="890" y="280" as="targetPoint" />
          </mxGeometry>
        </mxCell>
        <mxCell id="pKAdBVLY3ZLgAZYDwYKF-39" value="" style="shape=link;html=1;rounded=0;entryX=0;entryY=0.5;entryDx=0;entryDy=0;exitX=1;exitY=0.5;exitDx=0;exitDy=0;" parent="1" source="pKAdBVLY3ZLgAZYDwYKF-23" target="pKAdBVLY3ZLgAZYDwYKF-30" edge="1">
          <mxGeometry relative="1" as="geometry">
            <mxPoint x="550" y="280" as="sourcePoint" />
            <mxPoint x="710" y="280" as="targetPoint" />
          </mxGeometry>
        </mxCell>
        <mxCell id="pKAdBVLY3ZLgAZYDwYKF-40" value="N" style="resizable=0;html=1;align=right;verticalAlign=bottom;" parent="pKAdBVLY3ZLgAZYDwYKF-39" connectable="0" vertex="1">
          <mxGeometry x="1" relative="1" as="geometry" />
        </mxCell>
        <mxCell id="pKAdBVLY3ZLgAZYDwYKF-41" value="" style="shape=link;html=1;rounded=0;exitX=1;exitY=0.5;exitDx=0;exitDy=0;" parent="1" source="pKAdBVLY3ZLgAZYDwYKF-30" edge="1">
          <mxGeometry relative="1" as="geometry">
            <mxPoint x="880" y="280" as="sourcePoint" />
            <mxPoint x="1060" y="200" as="targetPoint" />
          </mxGeometry>
        </mxCell>
        <mxCell id="pKAdBVLY3ZLgAZYDwYKF-42" value="N" style="resizable=0;html=1;align=right;verticalAlign=bottom;" parent="pKAdBVLY3ZLgAZYDwYKF-41" connectable="0" vertex="1">
          <mxGeometry x="1" relative="1" as="geometry">
            <mxPoint x="-130" as="offset" />
          </mxGeometry>
        </mxCell>
        <mxCell id="pKAdBVLY3ZLgAZYDwYKF-43" value="tem itens" style="shape=rhombus;perimeter=rhombusPerimeter;whiteSpace=wrap;html=1;align=center;" parent="1" vertex="1">
          <mxGeometry x="1060" y="160" width="130" height="80" as="geometry" />
        </mxCell>
        <mxCell id="pKAdBVLY3ZLgAZYDwYKF-44" value="" style="endArrow=none;html=1;rounded=0;exitX=1;exitY=0.5;exitDx=0;exitDy=0;" parent="1" source="pKAdBVLY3ZLgAZYDwYKF-43" edge="1">
          <mxGeometry relative="1" as="geometry">
            <mxPoint x="1100" y="280" as="sourcePoint" />
            <mxPoint x="1270" y="200" as="targetPoint" />
          </mxGeometry>
        </mxCell>
        <mxCell id="pKAdBVLY3ZLgAZYDwYKF-45" value="M" style="resizable=0;html=1;align=right;verticalAlign=bottom;" parent="pKAdBVLY3ZLgAZYDwYKF-44" connectable="0" vertex="1">
          <mxGeometry x="1" relative="1" as="geometry">
            <mxPoint x="-10" as="offset" />
          </mxGeometry>
        </mxCell>
        <mxCell id="pKAdBVLY3ZLgAZYDwYKF-46" value="Produto" style="whiteSpace=wrap;html=1;align=center;" parent="1" vertex="1">
          <mxGeometry x="1270" y="180" width="100" height="50" as="geometry" />
        </mxCell>
        <mxCell id="pKAdBVLY3ZLgAZYDwYKF-47" value="Nº de unidades em armazém" style="ellipse;whiteSpace=wrap;html=1;align=center;dashed=1;" parent="1" vertex="1">
          <mxGeometry x="1230" y="80" width="100" height="60" as="geometry" />
        </mxCell>
        <mxCell id="pKAdBVLY3ZLgAZYDwYKF-48" value="Preço" style="ellipse;whiteSpace=wrap;html=1;align=center;" parent="1" vertex="1">
          <mxGeometry x="1370" y="90" width="100" height="40" as="geometry" />
        </mxCell>
        <mxCell id="pKAdBVLY3ZLgAZYDwYKF-50" value="Código" style="ellipse;whiteSpace=wrap;html=1;align=center;fontStyle=4;" parent="1" vertex="1">
          <mxGeometry x="1270" y="280" width="100" height="40" as="geometry" />
        </mxCell>
        <mxCell id="pKAdBVLY3ZLgAZYDwYKF-51" value="Nome" style="ellipse;whiteSpace=wrap;html=1;align=center;" parent="1" vertex="1">
          <mxGeometry x="1390" y="270" width="100" height="40" as="geometry" />
        </mxCell>
        <mxCell id="pKAdBVLY3ZLgAZYDwYKF-52" value="IVA" style="ellipse;whiteSpace=wrap;html=1;align=center;dashed=1;" parent="1" vertex="1">
          <mxGeometry x="1405" y="185" width="100" height="40" as="geometry" />
        </mxCell>
        <mxCell id="pKAdBVLY3ZLgAZYDwYKF-53" value="" style="endArrow=none;html=1;rounded=0;" parent="1" source="pKAdBVLY3ZLgAZYDwYKF-50" target="pKAdBVLY3ZLgAZYDwYKF-46" edge="1">
          <mxGeometry relative="1" as="geometry">
            <mxPoint x="1100" y="270" as="sourcePoint" />
            <mxPoint x="1260" y="270" as="targetPoint" />
          </mxGeometry>
        </mxCell>
        <mxCell id="pKAdBVLY3ZLgAZYDwYKF-54" value="" style="endArrow=none;html=1;rounded=0;" parent="1" source="pKAdBVLY3ZLgAZYDwYKF-51" target="pKAdBVLY3ZLgAZYDwYKF-46" edge="1">
          <mxGeometry relative="1" as="geometry">
            <mxPoint x="1100" y="270" as="sourcePoint" />
            <mxPoint x="1260" y="270" as="targetPoint" />
          </mxGeometry>
        </mxCell>
        <mxCell id="pKAdBVLY3ZLgAZYDwYKF-55" value="" style="endArrow=none;html=1;rounded=0;" parent="1" source="pKAdBVLY3ZLgAZYDwYKF-52" target="pKAdBVLY3ZLgAZYDwYKF-46" edge="1">
          <mxGeometry relative="1" as="geometry">
            <mxPoint x="1100" y="270" as="sourcePoint" />
            <mxPoint x="1260" y="270" as="targetPoint" />
          </mxGeometry>
        </mxCell>
        <mxCell id="pKAdBVLY3ZLgAZYDwYKF-57" value="" style="endArrow=none;html=1;rounded=0;" parent="1" source="pKAdBVLY3ZLgAZYDwYKF-46" target="pKAdBVLY3ZLgAZYDwYKF-47" edge="1">
          <mxGeometry relative="1" as="geometry">
            <mxPoint x="1100" y="270" as="sourcePoint" />
            <mxPoint x="1260" y="270" as="targetPoint" />
          </mxGeometry>
        </mxCell>
        <mxCell id="pKAdBVLY3ZLgAZYDwYKF-59" value="" style="endArrow=none;html=1;rounded=0;" parent="1" source="pKAdBVLY3ZLgAZYDwYKF-46" target="pKAdBVLY3ZLgAZYDwYKF-48" edge="1">
          <mxGeometry relative="1" as="geometry">
            <mxPoint x="1100" y="270" as="sourcePoint" />
            <mxPoint x="1260" y="270" as="targetPoint" />
          </mxGeometry>
        </mxCell>
        <mxCell id="kldK0KHgcJGwVZ15LnNS-2" value="Nº Itens" style="ellipse;whiteSpace=wrap;html=1;align=center;" parent="1" vertex="1">
          <mxGeometry x="1075" y="90" width="100" height="40" as="geometry" />
        </mxCell>
        <mxCell id="kldK0KHgcJGwVZ15LnNS-3" value="" style="endArrow=none;html=1;rounded=0;" parent="1" source="pKAdBVLY3ZLgAZYDwYKF-43" target="kldK0KHgcJGwVZ15LnNS-2" edge="1">
          <mxGeometry relative="1" as="geometry">
            <mxPoint x="1000" y="110" as="sourcePoint" />
            <mxPoint x="1160" y="110" as="targetPoint" />
          </mxGeometry>
        </mxCell>
        <mxCell id="kldK0KHgcJGwVZ15LnNS-6" value="&lt;h1&gt;Entidades&lt;/h1&gt;&lt;p&gt;Encomenda&lt;/p&gt;&lt;p&gt;Produto&lt;/p&gt;&lt;p&gt;Fornecedor&lt;/p&gt;" style="text;html=1;strokeColor=none;fillColor=none;spacing=5;spacingTop=-20;whiteSpace=wrap;overflow=hidden;rounded=0;" parent="1" vertex="1">
          <mxGeometry x="190" y="550" width="190" height="120" as="geometry" />
        </mxCell>
        <mxCell id="kldK0KHgcJGwVZ15LnNS-7" value="&lt;h1&gt;Atributos&lt;/h1&gt;&lt;p&gt;&lt;span style=&quot;text-align: center&quot;&gt;Tipo de Pagamento&lt;/span&gt;&lt;br&gt;&lt;/p&gt;&lt;p&gt;&lt;span style=&quot;text-align: center&quot;&gt;Nº de Fax&lt;/span&gt;&lt;span style=&quot;text-align: center&quot;&gt;&lt;br&gt;&lt;/span&gt;&lt;/p&gt;&lt;p&gt;&lt;span style=&quot;text-align: center&quot;&gt;Nome&lt;/span&gt;&lt;span style=&quot;text-align: center&quot;&gt;&lt;br&gt;&lt;/span&gt;&lt;/p&gt;&lt;p&gt;&lt;span style=&quot;text-align: center&quot;&gt;NIF (atributo chave de Fornecedor)&lt;/span&gt;&lt;span style=&quot;text-align: center&quot;&gt;&lt;br&gt;&lt;/span&gt;&lt;/p&gt;&lt;p&gt;&lt;span style=&quot;text-align: center&quot;&gt;Endereço&lt;/span&gt;&lt;/p&gt;&lt;p&gt;&lt;span style=&quot;text-align: center&quot;&gt;Tipo de Fornecedor (Atributo Composto)&lt;/span&gt;&lt;/p&gt;&lt;p&gt;&lt;span style=&quot;text-align: center&quot;&gt;Código&lt;/span&gt;&lt;/p&gt;&lt;p&gt;&lt;span style=&quot;text-align: center&quot;&gt;Designação&lt;/span&gt;&lt;/p&gt;&lt;p&gt;&lt;span style=&quot;text-align: center&quot;&gt;Nº Identificador (atributo chave de Encomenda)&lt;/span&gt;&lt;/p&gt;&lt;p&gt;&lt;span style=&quot;text-align: center&quot;&gt;Data&lt;/span&gt;&lt;/p&gt;&lt;p&gt;&lt;span style=&quot;text-align: center&quot;&gt;Nº Itens&lt;/span&gt;&lt;/p&gt;&lt;p&gt;&lt;span style=&quot;text-align: center&quot;&gt;Nº de Unidades em armazém&lt;/span&gt;&lt;/p&gt;&lt;p&gt;&lt;span style=&quot;text-align: center&quot;&gt;Preço&lt;/span&gt;&lt;/p&gt;&lt;p&gt;&lt;span style=&quot;text-align: center&quot;&gt;Código (atributo chave de&amp;nbsp;Produto)&lt;/span&gt;&lt;/p&gt;&lt;p&gt;&lt;span style=&quot;text-align: center&quot;&gt;IVA&lt;/span&gt;&lt;/p&gt;&lt;p&gt;&lt;span style=&quot;text-align: center&quot;&gt;Nome&lt;/span&gt;&lt;/p&gt;" style="text;html=1;strokeColor=none;fillColor=none;spacing=5;spacingTop=-20;whiteSpace=wrap;overflow=hidden;rounded=0;" parent="1" vertex="1">
          <mxGeometry x="410" y="550" width="220" height="520" as="geometry" />
        </mxCell>
        <mxCell id="kldK0KHgcJGwVZ15LnNS-8" value="&lt;h1&gt;Relações / Cardinalidade / Grau&lt;/h1&gt;&lt;p&gt;Encomenda é constituída por itens, os quais são produtos / 1:N / Binária&lt;/p&gt;&lt;p&gt;Encomenda é constituida por um fornecedor único / 1:N / Binária&lt;/p&gt;" style="text;html=1;strokeColor=none;fillColor=none;spacing=5;spacingTop=-20;whiteSpace=wrap;overflow=hidden;rounded=0;" parent="1" vertex="1">
          <mxGeometry x="640" y="550" width="410" height="120" as="geometry" />
        </mxCell>
        <mxCell id="kldK0KHgcJGwVZ15LnNS-9" value="&lt;h1&gt;Obrigatoriedade&lt;/h1&gt;&lt;p&gt;Todas as encomendas têm itens. / Nem todos os Produtos são itens da Encomenda.&lt;/p&gt;&lt;p&gt;Todas as encomendas são constituídas por um Fornecedor único. / Nem todos os Fornecedores contribuem para a encomenda.&lt;/p&gt;&lt;p&gt;&lt;br&gt;&lt;/p&gt;" style="text;html=1;strokeColor=none;fillColor=none;spacing=5;spacingTop=-20;whiteSpace=wrap;overflow=hidden;rounded=0;" parent="1" vertex="1">
          <mxGeometry x="1100" y="550" width="480" height="150" as="geometry" />
        </mxCell>
        <mxCell id="kldK0KHgcJGwVZ15LnNS-11" value="&lt;font style=&quot;font-size: 27px&quot;&gt;Exercício 2.1&lt;/font&gt;" style="text;html=1;strokeColor=none;fillColor=none;align=center;verticalAlign=middle;whiteSpace=wrap;rounded=0;" parent="1" vertex="1">
          <mxGeometry x="40" y="30" width="170" height="40" as="geometry" />
        </mxCell>
        <mxCell id="kldK0KHgcJGwVZ15LnNS-13" value="&lt;font style=&quot;font-size: 20px&quot;&gt;P4G7&lt;br&gt;- Álvaro Freixo 93116&lt;br&gt;- João Machado 89132&lt;br&gt;&lt;/font&gt;" style="text;html=1;strokeColor=none;fillColor=none;align=center;verticalAlign=middle;whiteSpace=wrap;rounded=0;" parent="1" vertex="1">
          <mxGeometry y="80" width="250" height="110" as="geometry" />
        </mxCell>
      </root>
    </mxGraphModel>
  </diagram>
</mxfile>
